<?xml version="1.0" encoding="UTF-8" standalone="no"?>
<!-- Created with Inkscape (http://www.inkscape.org/) -->
<svg
   xmlns:dc="http://purl.org/dc/elements/1.1/"
   xmlns:cc="http://creativecommons.org/ns#"
   xmlns:rdf="http://www.w3.org/1999/02/22-rdf-syntax-ns#"
   xmlns:svg="http://www.w3.org/2000/svg"
   xmlns="http://www.w3.org/2000/svg"
   xmlns:sodipodi="http://sodipodi.sourceforge.net/DTD/sodipodi-0.dtd"
   xmlns:inkscape="http://www.inkscape.org/namespaces/inkscape"
   width="64px"
   height="64px"
   id="svg2408"
   sodipodi:version="0.32"
   inkscape:version="0.46"
   sodipodi:docname="ranjana_k.svg"
   inkscape:output_extension="org.inkscape.output.svg.inkscape">
  <defs
     id="defs2410">
    <inkscape:perspective
       sodipodi:type="inkscape:persp3d"
       inkscape:vp_x="0 : 32 : 1"
       inkscape:vp_y="0 : 1000 : 0"
       inkscape:vp_z="64 : 32 : 1"
       inkscape:persp3d-origin="32 : 21.333333 : 1"
       id="perspective2416" />
    <inkscape:perspective
       id="perspective2425"
       inkscape:persp3d-origin="372.04724 : 350.78739 : 1"
       inkscape:vp_z="744.09448 : 526.18109 : 1"
       inkscape:vp_y="0 : 1000 : 0"
       inkscape:vp_x="0 : 526.18109 : 1"
       sodipodi:type="inkscape:persp3d" />
    <inkscape:perspective
       id="perspective2540"
       inkscape:persp3d-origin="372.04724 : 350.78739 : 1"
       inkscape:vp_z="744.09448 : 526.18109 : 1"
       inkscape:vp_y="0 : 1000 : 0"
       inkscape:vp_x="0 : 526.18109 : 1"
       sodipodi:type="inkscape:persp3d" />
    <inkscape:perspective
       id="perspective2642"
       inkscape:persp3d-origin="372.04724 : 350.78739 : 1"
       inkscape:vp_z="744.09448 : 526.18109 : 1"
       inkscape:vp_y="0 : 1000 : 0"
       inkscape:vp_x="0 : 526.18109 : 1"
       sodipodi:type="inkscape:persp3d" />
    <inkscape:perspective
       id="perspective2700"
       inkscape:persp3d-origin="372.04724 : 350.78739 : 1"
       inkscape:vp_z="744.09448 : 526.18109 : 1"
       inkscape:vp_y="0 : 1000 : 0"
       inkscape:vp_x="0 : 526.18109 : 1"
       sodipodi:type="inkscape:persp3d" />
    <inkscape:perspective
       id="perspective2748"
       inkscape:persp3d-origin="372.04724 : 350.78739 : 1"
       inkscape:vp_z="744.09448 : 526.18109 : 1"
       inkscape:vp_y="0 : 1000 : 0"
       inkscape:vp_x="0 : 526.18109 : 1"
       sodipodi:type="inkscape:persp3d" />
    <inkscape:perspective
       id="perspective2797"
       inkscape:persp3d-origin="372.04724 : 350.78739 : 1"
       inkscape:vp_z="744.09448 : 526.18109 : 1"
       inkscape:vp_y="0 : 1000 : 0"
       inkscape:vp_x="0 : 526.18109 : 1"
       sodipodi:type="inkscape:persp3d" />
    <inkscape:perspective
       id="perspective2832"
       inkscape:persp3d-origin="372.04724 : 350.78739 : 1"
       inkscape:vp_z="744.09448 : 526.18109 : 1"
       inkscape:vp_y="0 : 1000 : 0"
       inkscape:vp_x="0 : 526.18109 : 1"
       sodipodi:type="inkscape:persp3d" />
    <inkscape:perspective
       id="perspective2867"
       inkscape:persp3d-origin="372.04724 : 350.78739 : 1"
       inkscape:vp_z="744.09448 : 526.18109 : 1"
       inkscape:vp_y="0 : 1000 : 0"
       inkscape:vp_x="0 : 526.18109 : 1"
       sodipodi:type="inkscape:persp3d" />
    <inkscape:perspective
       id="perspective2902"
       inkscape:persp3d-origin="372.04724 : 350.78739 : 1"
       inkscape:vp_z="744.09448 : 526.18109 : 1"
       inkscape:vp_y="0 : 1000 : 0"
       inkscape:vp_x="0 : 526.18109 : 1"
       sodipodi:type="inkscape:persp3d" />
    <inkscape:perspective
       id="perspective2937"
       inkscape:persp3d-origin="372.04724 : 350.78739 : 1"
       inkscape:vp_z="744.09448 : 526.18109 : 1"
       inkscape:vp_y="0 : 1000 : 0"
       inkscape:vp_x="0 : 526.18109 : 1"
       sodipodi:type="inkscape:persp3d" />
    <inkscape:perspective
       id="perspective3000"
       inkscape:persp3d-origin="372.04724 : 350.78739 : 1"
       inkscape:vp_z="744.09448 : 526.18109 : 1"
       inkscape:vp_y="0 : 1000 : 0"
       inkscape:vp_x="0 : 526.18109 : 1"
       sodipodi:type="inkscape:persp3d" />
    <inkscape:perspective
       id="perspective3050"
       inkscape:persp3d-origin="372.04724 : 350.78739 : 1"
       inkscape:vp_z="744.09448 : 526.18109 : 1"
       inkscape:vp_y="0 : 1000 : 0"
       inkscape:vp_x="0 : 526.18109 : 1"
       sodipodi:type="inkscape:persp3d" />
    <inkscape:perspective
       id="perspective3098"
       inkscape:persp3d-origin="372.04724 : 350.78739 : 1"
       inkscape:vp_z="744.09448 : 526.18109 : 1"
       inkscape:vp_y="0 : 1000 : 0"
       inkscape:vp_x="0 : 526.18109 : 1"
       sodipodi:type="inkscape:persp3d" />
    <inkscape:perspective
       id="perspective3146"
       inkscape:persp3d-origin="372.04724 : 350.78739 : 1"
       inkscape:vp_z="744.09448 : 526.18109 : 1"
       inkscape:vp_y="0 : 1000 : 0"
       inkscape:vp_x="0 : 526.18109 : 1"
       sodipodi:type="inkscape:persp3d" />
    <inkscape:perspective
       id="perspective3289"
       inkscape:persp3d-origin="372.04724 : 350.78739 : 1"
       inkscape:vp_z="744.09448 : 526.18109 : 1"
       inkscape:vp_y="0 : 1000 : 0"
       inkscape:vp_x="0 : 526.18109 : 1"
       sodipodi:type="inkscape:persp3d" />
    <inkscape:perspective
       id="perspective3324"
       inkscape:persp3d-origin="372.04724 : 350.78739 : 1"
       inkscape:vp_z="744.09448 : 526.18109 : 1"
       inkscape:vp_y="0 : 1000 : 0"
       inkscape:vp_x="0 : 526.18109 : 1"
       sodipodi:type="inkscape:persp3d" />
    <inkscape:perspective
       id="perspective3359"
       inkscape:persp3d-origin="372.04724 : 350.78739 : 1"
       inkscape:vp_z="744.09448 : 526.18109 : 1"
       inkscape:vp_y="0 : 1000 : 0"
       inkscape:vp_x="0 : 526.18109 : 1"
       sodipodi:type="inkscape:persp3d" />
  </defs>
  <sodipodi:namedview
     id="base"
     pagecolor="#ffffff"
     bordercolor="#666666"
     borderopacity="1.0"
     inkscape:pageopacity="0.0"
     inkscape:pageshadow="2"
     inkscape:zoom="5.5515463"
     inkscape:cx="44.744069"
     inkscape:cy="23.017019"
     inkscape:current-layer="layer1"
     showgrid="true"
     inkscape:document-units="px"
     inkscape:grid-bbox="true"
     inkscape:window-width="640"
     inkscape:window-height="688"
     inkscape:window-x="28"
     inkscape:window-y="28" />
  <metadata
     id="metadata2413">
    <rdf:RDF>
      <cc:Work
         rdf:about="">
        <dc:format>image/svg+xml</dc:format>
        <dc:type
           rdf:resource="http://purl.org/dc/dcmitype/StillImage" />
      </cc:Work>
    </rdf:RDF>
  </metadata>
  <g
     id="layer1"
     inkscape:label="Layer 1"
     inkscape:groupmode="layer">
    <path
       style="fill:#000000"
       d="M 42.28128,62.420082 C 41.319074,61.81567 40.415601,61.31792 40.273563,61.31397 C 40.131525,61.310016 39.702111,61.08347 39.319309,60.810531 C 38.936507,60.537589 35.688972,58.61696 32.102566,56.542468 C 28.516158,54.467973 24.937704,52.36653 24.150443,51.872592 C 21.756401,50.370538 17.21309,47.661114 10.419422,43.684037 C 6.8623698,41.601708 3.674784,39.638587 3.3358963,39.321546 C 2.8243668,38.842996 2.7126868,38.270586 2.6782216,35.950691 C 2.6061519,31.099678 3.8135772,27.933229 6.9121565,24.847274 C 9.721871,22.049005 12.046056,21.000787 16.321827,20.60347 C 20.728955,20.193947 22.038333,20.529712 27.243323,23.404076 C 27.668114,23.638659 28.074198,23.772063 28.145734,23.700529 C 28.295631,23.550632 28.372822,10.393654 28.224659,10.247868 C 28.170674,10.194748 26.695123,10.334292 24.945656,10.557965 C 19.404891,11.266358 14.228637,10.539097 11.243821,8.6328568 C 8.7521908,7.041587 3.8139082,1.2798375 4.8070233,1.1227141 C 5.0365776,1.0863989 10.377369,1.026935 16.675449,0.99057539 C 22.973529,0.95421568 28.41278,0.91733908 28.762673,0.90862202 C 31.390902,0.84315057 53.021216,1.221614 53.33473,1.338554 C 53.553413,1.4201282 53.732336,1.8244697 53.732336,2.2371045 C 53.732336,2.9135356 53.333369,3.1239287 49.676754,4.3757837 C 47.446184,5.1394299 44.046651,6.1353213 42.122238,6.5888827 L 38.623303,7.4135385 L 38.539842,18.907447 L 38.456379,30.401355 L 40.289309,31.430573 C 41.297418,31.996639 42.367399,32.669641 42.667038,32.926132 C 42.96668,33.18262 43.431879,33.308037 43.700814,33.204837 C 44.095757,33.053283 44.189789,32.403591 44.189789,29.826365 C 44.189789,27.943646 44.318231,26.635536 44.503097,26.635536 C 44.769721,26.635536 45.629598,27.10049 48.642978,28.874068 C 48.905399,29.02852 50.209084,29.796821 51.540057,30.581406 L 53.960008,32.007925 L 53.81735,44.033156 C 53.723979,51.90364 53.788433,56.351682 54.0039,56.90728 C 54.184967,57.374171 54.690461,57.946724 55.127221,58.179619 C 55.563979,58.412515 57.08248,59.301025 58.501673,60.154084 C 60.575206,61.400464 61.063086,61.837159 60.98563,62.37743 C 60.823795,63.506272 59.898575,63.332066 57.110049,61.647715 C 55.641079,60.760417 54.331986,60.034445 54.200948,60.034445 C 53.932719,60.034445 50.321811,57.892933 46.734468,55.60632 L 44.348833,54.085687 L 44.189789,45.219834 L 44.030747,36.353978 L 42.28128,35.220207 C 39.844194,33.64081 38.797911,33.209803 38.62701,33.714858 C 38.553374,33.932476 38.437508,39.442389 38.369537,45.959104 L 38.24595,57.807683 L 41.615477,59.76219 C 45.97214,62.289291 45.838322,62.176626 45.37137,62.924335 C 44.841316,63.773084 44.29271,63.683562 42.28128,62.420082 z M 15.996744,42.674663 C 16.507514,40.360986 18.231873,36.464593 19.294356,35.223321 C 20.658454,33.629678 23.401012,32.361063 25.482131,32.361063 C 27.96331,32.361063 28.285546,32.053476 28.285546,29.685097 C 28.285546,28.452709 28.130828,27.544028 27.88794,27.349903 C 27.175478,26.780473 24.062279,26.632087 21.870699,27.063099 C 20.02373,27.426339 17.735364,28.512379 15.855129,29.91804 C 14.844332,30.673713 12.418847,34.311775 11.94634,35.780962 C 11.285373,37.83613 11.039015,39.974282 11.341114,41.033733 C 11.509088,41.622816 12.168764,42.270552 13.338475,42.994938 C 14.299077,43.589827 15.228163,44.041969 15.403109,43.9997 C 15.578057,43.957429 15.845192,43.361163 15.996744,42.674663 z"
       id="path3365" />
  </g>
</svg>
